<mxfile host="app.diagrams.net" modified="2023-05-15T04:42:46.373Z" agent="Mozilla/5.0 (X11; Ubuntu; Linux x86_64; rv:109.0) Gecko/20100101 Firefox/112.0" version="21.2.9" etag="bwQwWbZ7P9-Kfzq-Hnq9" type="github">
  <diagram name="Page-1" id="43W1K9Ud9nRU45V3sbpf">
    <mxGraphModel>
      <root>
        <mxCell id="0" />
        <mxCell id="1" parent="0" />
      </root>
    </mxGraphModel>
  </diagram>
</mxfile>
